<?xml version="1.0" encoding="UTF-8" standalone="no"?>
<!-- Created with Inkscape (http://www.inkscape.org/) -->

<svg
   xmlns:dc="http://purl.org/dc/elements/1.1/"
   xmlns:cc="http://creativecommons.org/ns#"
   xmlns:rdf="http://www.w3.org/1999/02/22-rdf-syntax-ns#"
   xmlns:svg="http://www.w3.org/2000/svg"
   xmlns="http://www.w3.org/2000/svg"
   xmlns:sodipodi="http://sodipodi.sourceforge.net/DTD/sodipodi-0.dtd"
   xmlns:inkscape="http://www.inkscape.org/namespaces/inkscape"
   width="709"
   height="920"
   id="svg2"
   version="1.1"
   inkscape:version="0.48.4 r9939"
   sodipodi:docname="drawing.svg">
  <defs
     id="defs4" />
  <sodipodi:namedview
     id="base"
     pagecolor="#88888f"
     bordercolor="#666666"
     borderopacity="1.0"
     inkscape:pageopacity="1"
     inkscape:pageshadow="2"
     inkscape:zoom="0.24748737"
     inkscape:cx="226.39827"
     inkscape:cy="759.64621"
     inkscape:document-units="px"
     inkscape:current-layer="g3169"
     showgrid="false"
     inkscape:window-width="1360"
     inkscape:window-height="724"
     inkscape:window-x="0"
     inkscape:window-y="41"
     inkscape:window-maximized="0" />
  <metadata
     id="metadata7">
    <rdf:RDF>
      <cc:Work
         rdf:about="">
        <dc:format>image/svg+xml</dc:format>
        <dc:type
           rdf:resource="http://purl.org/dc/dcmitype/StillImage" />
      </cc:Work>
    </rdf:RDF>
  </metadata>
  <g
     inkscape:label="Layer 1"
     inkscape:groupmode="layer"
     id="layer1">
    <g
       id="g3169"
       transform="translate(-669.96899,-936.44084)">
      <g
         id="Layer_1" />
      <g
         id="Layer_3"
         transform="matrix(0.73224409,0,0,0.73224409,667,931)">
        <g
           id="g3105">
          <g
             id="g3107">
            <path
               id="path3109"
               d="m 108.226,1262.008 c -42.538,0 -75.19,-15.856 -91.942,-44.646 -16.751,-28.79 -14.401,-65.011 6.617,-101.99 L 358.74,524.524 V 390.005 c -27.718,-10.681 -45.851,-35.059 -45.851,-62.661 0,-35.323 29.982,-64.465 68.264,-67.924 -5.54,-10.079 -8.478,-21.435 -8.478,-33.285 0,-18.26 6.987,-35.275 19.26,-48.026 -11.529,-6.17 -21.75,-14.837 -29.681,-25.319 -11.939,-15.78 -18.25,-34.582 -18.25,-54.372 0,-49.795 40.511,-90.306 90.306,-90.306 49.795,0 90.307,40.511 90.307,90.306 0,4.782 -0.377,9.538 -1.128,14.232 29.851,2.91 53.258,28.146 53.258,58.748 0,32.548 -26.48,59.028 -59.028,59.028 -2.095,0 -4.179,-0.11 -6.245,-0.328 -0.573,10.282 -3.375,20.117 -8.179,28.978 h 84.17 c 41.855,0 75.907,30.625 75.907,68.268 0,27.603 -18.13,51.98 -45.845,62.661 v 134.531 l 335.832,590.835 c 21.019,36.979 23.369,73.2 6.617,101.99 -16.752,28.79 -49.403,44.646 -91.94,44.646 h -759.81 z"
               inkscape:connector-curvature="0"
               style="fill:#ffffff" />
          </g>
        </g>
        <g
           id="g3111">
          <g
             id="g3113">
            <path
               id="path3115"
               d="m 442.129,268.581 c -23.404,0 -42.446,-19.041 -42.446,-42.446 0,-23.405 19.042,-42.446 42.446,-42.446 23.405,0 42.446,19.041 42.446,42.446 0.001,23.405 -19.04,42.446 -42.446,42.446 l 0,0 z m 0,-72.981 c -16.836,0 -30.534,13.699 -30.534,30.535 0,16.837 13.698,30.535 30.534,30.535 16.838,0 30.535,-13.698 30.535,-30.535 0.001,-16.836 -13.697,-30.535 -30.535,-30.535 l 0,0 z"
               inkscape:connector-curvature="0"
               style="fill:#b60000" />
          </g>
          <g
             id="g3117">
            <path
               id="path3119"
               d="m 517.718,203.419 c -17.657,0 -32.021,-14.364 -32.021,-32.021 0,-17.655 14.364,-32.02 32.021,-32.02 17.654,0 32.021,14.365 32.021,32.02 0,17.657 -14.366,32.021 -32.021,32.021 l 0,0 z m 0,-52.129 c -11.089,0 -20.109,9.021 -20.109,20.108 0,11.088 9.021,20.109 20.109,20.109 11.088,0 20.108,-9.021 20.108,-20.109 10e-4,-11.087 -9.02,-20.108 -20.108,-20.108 l 0,0 z"
               inkscape:connector-curvature="0"
               style="fill:#b60000" />
          </g>
          <g
             id="g3121">
            <path
               id="path3123"
               d="m 434.31,161.715 c -34.902,0 -63.298,-28.395 -63.298,-63.297 0,-34.902 28.396,-63.298 63.298,-63.298 34.903,0 63.299,28.396 63.299,63.298 0,34.902 -28.396,63.297 -63.299,63.297 l 0,0 z m 0,-114.684 c -28.334,0 -51.387,23.053 -51.387,51.387 0,28.334 23.053,51.386 51.387,51.386 28.335,0 51.387,-23.052 51.387,-51.386 0,-28.334 -23.052,-51.387 -51.387,-51.387 l 0,0 z"
               inkscape:connector-curvature="0"
               style="fill:#b60000" />
          </g>
        </g>
        <path
           id="path3125"
           d="M 929.878,1128.717 799.621,899.553 C 766.392,841.097 712.023,745.444 678.796,686.985 L 590.52,531.675 V 368.474 c 25.481,-1.35 45.845,-19.308 45.845,-41.13 0,-22.694 -22.006,-41.26 -48.899,-41.26 H 388.802 c -26.896,0 -48.905,18.566 -48.905,41.26 0,21.822 20.374,39.78 45.851,41.13 v 163.19 l -88.287,155.32 C 264.236,745.443 209.867,841.097 176.642,899.552 L 46.382,1128.716 C 13.156,1187.172 40.985,1235 108.226,1235 h 257.651 c 67.239,0 177.266,0 244.505,0 h 257.652 c 67.24,0 95.07,-47.828 61.844,-106.283 z"
           inkscape:connector-curvature="0"
           style="fill:#b60000" />
        <g
           id="g3127">
          <g
             id="g3129">
            <path
               id="path3131"
               d="M 356.322,923.586 H 370.8 v 105.574 h -13.024 l -70.611,-81.308 v 81.308 H 272.81 V 923.586 h 12.27 l 71.242,82.011 v -82.011 z"
               inkscape:connector-curvature="0"
               style="fill:#ffffff" />
            <path
               id="path3133"
               d="m 397.917,923.586 h 59.956 v 13.425 H 413 v 32.197 h 43.251 v 13.567 H 413 v 32.766 h 46.329 v 13.475 h -61.413 v -105.43 z"
               inkscape:connector-curvature="0"
               style="fill:#ffffff" />
            <path
               id="path3135"
               d="m 619.142,923.586 h 15.149 l -42.585,106.049 h -3.504 l -34.376,-85.892 -34.848,85.892 h -3.402 L 473.08,923.586 h 15.257 l 29.015,72.789 29.305,-72.789 h 14.374 l 29.368,72.789 28.743,-72.789 z"
               inkscape:connector-curvature="0"
               style="fill:#ffffff" />
            <path
               id="path3137"
               d="M 675.232,984.969 663.799,978 c -7.332,-4.439 -12.51,-8.792 -15.422,-13.036 -2.987,-4.204 -4.556,-9.137 -4.556,-14.696 0,-8.286 2.773,-15.071 8.527,-20.261 5.803,-5.18 13.344,-7.771 22.669,-7.771 8.776,0 16.856,2.43 24.222,7.422 v 17.114 c -7.696,-7.315 -15.807,-10.931 -24.604,-10.931 -4.892,0 -9.106,1.151 -12.242,3.396 -3.217,2.288 -4.852,5.196 -4.852,8.853 0,3.129 1.309,6.053 3.741,8.831 2.144,2.741 5.986,5.65 11.104,8.649 l 11.52,6.834 c 13.054,7.697 19.543,17.557 19.543,29.42 0,8.447 -2.948,15.307 -8.526,20.594 -5.788,5.335 -13.153,7.955 -22.074,7.955 -10.482,0 -19.976,-3.188 -28.492,-9.569 v -19.218 c 7.941,10.319 17.386,15.545 28.177,15.545 4.744,0 8.827,-1.318 11.948,-3.966 3.193,-2.649 4.653,-5.997 4.653,-9.97 0,-6.361 -4.653,-12.451 -13.903,-18.226 z"
               inkscape:connector-curvature="0"
               style="fill:#ffffff" />
          </g>
          <path
             id="path3139"
             d="m 503.621,833.664 c 0,2.47 -0.918,5.086 -3.093,7.008 -2.145,2.041 -6.093,3.466 -12.576,3.466 H 475.17 V 823.41 h 12.25 c 5.694,-0.018 9.869,1.166 12.488,2.927 2.484,1.878 3.67,4.257 3.713,7.327 z m -10.539,-24.92 c 2.415,-1.683 3.664,-4.171 3.703,-7.831 0,-2.54 -0.881,-4.732 -2.609,-6.32 -1.896,-1.667 -4.934,-2.765 -9.96,-2.765 h -9.046 v 19.732 h 6.254 c 5.337,0 9.167,-1.008 11.658,-2.816 z m 51.052,-43.651 V 870.802 H 432.083 V 765.093 h 112.051 z m -26.783,70.073 c 0.106,-9.617 -6.308,-16.844 -16.255,-19.69 2.532,-1.394 4.64,-3.092 6.397,-5.158 2.115,-2.91 3.132,-6.33 3.132,-10.387 0,-4.915 -1.927,-9.983 -6.018,-13.771 -4.168,-3.803 -10.52,-6.166 -19.22,-6.166 h -23.932 v 76.033 h 28.048 0.036 c 9.903,0 16.959,-2.761 21.482,-6.75 4.65,-3.96 6.36,-9.232 6.33,-14.111 z M 364.165,808.744 c 2.462,-1.683 3.505,-4.171 3.505,-7.831 0,-2.54 -0.604,-4.732 -2.504,-6.32 -1.742,-1.667 -4.883,-2.765 -9.963,-2.765 h -8.998 v 19.732 h 6.292 c 5.355,0 9.288,-1.008 11.668,-2.816 z m 6.667,17.592 c -2.525,-1.761 -6.596,-2.945 -12.36,-2.927 h -12.267 v 20.728 h 12.887 c 6.458,0 10.246,-1.426 12.409,-3.466 2.337,-1.921 3.115,-4.538 3.115,-7.008 0,-3.069 -1.046,-5.448 -3.784,-7.327 z m 44.289,-61.243 V 870.802 H 303.274 V 765.093 h 111.847 z m -26.643,70.073 c 0.16,-9.617 -6.274,-16.844 -16.573,-19.69 2.808,-1.394 4.984,-3.092 6.605,-5.158 2.128,-2.91 3.157,-6.33 3.157,-10.387 0,-4.915 -1.818,-9.983 -6.008,-13.771 -4.205,-3.803 -10.543,-6.166 -19.194,-6.166 h -23.937 v 76.033 h 27.972 0.021 c 10.021,0 17.212,-2.761 21.541,-6.75 4.566,-3.96 6.416,-9.232 6.416,-14.111 z M 672.982,765.093 V 870.802 H 561.146 V 765.093 h 111.836 z m -22.175,70.579 -1.757,1.117 c -8.776,5.341 -18.154,8.123 -26.671,8.123 -18.349,-0.093 -30.413,-10.922 -30.466,-26.832 0,-15.463 12.599,-27.034 29.902,-27.034 8.918,0 16.885,2.334 26.4,7.532 l 1.863,0.946 v -14.146 l -0.811,-0.293 c -10.752,-4.238 -19.161,-6.147 -27.169,-6.147 -12.744,0 -23.69,4.202 -31.559,11.314 -7.883,7.122 -12.509,17.248 -12.509,28.804 0,8.081 3.243,17.533 10.433,24.998 6.958,7.531 18.04,12.982 32.821,12.982 h 0.049 c 12.544,0 21.025,-2.745 28.782,-6.618 l 0.689,-0.352 v -14.394 z"
             inkscape:connector-curvature="0"
             style="fill:#ffffff" />
        </g>
        <g
           id="g3141">
          <path
             id="path3143"
             d="m 373.114,1085.791 h 10.864 v 65.995 h 34.166 v 9.888 h -45.03 v -75.883 z"
             inkscape:connector-curvature="0"
             style="fill:#ffffff" />
          <path
             id="path3145"
             d="m 452.991,1085.357 h 7.634 l 34.024,76.316 h -11.118 l -10.113,-22.49 h -32.374 l -9.482,22.49 h -11.164 l 32.593,-76.316 z m 15.96,44.161 -12.243,-27.486 -11.353,27.486 h 23.596 z"
             inkscape:connector-curvature="0"
             style="fill:#ffffff" />
          <path
             id="path3147"
             d="m 529.764,1161.674 h -25.692 v -75.883 h 19.882 c 6.265,0 11.151,0.844 14.665,2.525 3.512,1.686 6.191,4.002 8.037,6.953 1.848,2.951 2.772,6.365 2.772,10.238 0,7.461 -3.856,12.802 -11.571,16.023 5.541,1.052 9.95,3.332 13.227,6.844 3.277,3.514 4.918,7.714 4.918,12.604 0,3.875 -0.999,7.33 -2.989,10.375 -1.991,3.042 -4.916,5.521 -8.772,7.439 -3.857,1.921 -8.683,2.882 -14.477,2.882 z m -5.485,-66.215 h -9.344 v 22.814 h 7.225 c 5.792,0 9.913,-1.105 12.358,-3.314 2.441,-2.207 3.663,-5.067 3.663,-8.582 0,-7.277 -4.635,-10.918 -13.902,-10.918 z m 0.815,32.482 h -10.159 v 24.064 h 10.702 c 5.936,0 9.968,-0.465 12.083,-1.389 2.12,-0.922 3.822,-2.361 5.107,-4.316 1.285,-1.955 1.93,-4.055 1.93,-6.3 0,-2.319 -0.681,-4.437 -2.039,-6.356 -1.356,-1.919 -3.286,-3.35 -5.783,-4.291 -2.5,-0.941 -6.447,-1.412 -11.841,-1.412 z"
             inkscape:connector-curvature="0"
             style="fill:#ffffff" />
          <path
             id="path3149"
             d="m 586.606,1129.877 -8.258,-5.014 c -5.178,-3.16 -8.862,-6.274 -11.052,-9.333 -2.191,-3.06 -3.286,-6.581 -3.286,-10.563 0,-5.979 2.071,-10.829 6.218,-14.557 4.148,-3.73 9.533,-5.596 16.158,-5.596 6.339,0 12.148,1.779 17.438,5.334 v 12.332 c -5.469,-5.26 -11.353,-7.889 -17.652,-7.889 -3.549,0 -6.465,0.818 -8.748,2.461 -2.279,1.642 -3.418,3.741 -3.418,6.301 0,2.274 0.839,4.402 2.52,6.386 1.678,1.985 4.381,4.067 8.106,6.251 l 8.297,4.906 c 9.256,5.529 13.882,12.568 13.882,21.112 0,6.083 -2.034,11.026 -6.111,14.829 -4.072,3.805 -9.369,5.701 -15.886,5.701 -7.496,0 -14.322,-2.301 -20.477,-6.91 v -13.795 c 5.864,7.432 12.655,11.148 20.368,11.148 3.403,0 6.236,-0.947 8.499,-2.845 2.263,-1.892 3.396,-4.265 3.396,-7.115 -10e-4,-4.617 -3.335,-8.998 -9.994,-13.144 z"
             inkscape:connector-curvature="0"
             style="fill:#ffffff" />
        </g>
        <g
           id="g3151" />
        <g
           id="g3153" />
        <g
           id="g3155" />
        <g
           id="g3157" />
        <g
           id="g3159" />
        <g
           id="g3161" />
      </g>
    </g>
  </g>
</svg>
